<svg width="410" height="456" viewBox="0 0 410 456" fill="none" xmlns="http://www.w3.org/2000/svg">
<g clip-path="url(#clip0_1573_3552)">
<path d="M267.031 91.8895C266.991 91.8395 266.951 91.7995 267.031 91.8895Z" fill="black"/>
<path d="M372.671 207.781C360.781 198.611 346.121 189.541 329.101 180.801C324.951 178.671 320.261 177.341 315.181 176.871C311.461 176.511 306.311 176.481 304.681 180.221C303.941 181.921 304.541 183.831 309.911 190.101C310.961 191.321 311.751 192.321 312.351 193.121C307.931 191.671 304.421 191.301 301.711 191.961C301.511 191.941 301.321 191.931 301.151 191.931C299.231 191.931 292.421 194.611 268.301 212.551C267.441 213.191 264.471 215.431 262.721 216.751C265.571 212.121 268.681 206.211 272.031 199.061L272.451 198.151V197.071C272.451 195.371 272.451 195.101 268.911 186.351C266.541 180.491 266.041 177.141 266.041 175.361C266.041 172.771 266.661 169.961 267.881 166.981C268.171 166.301 269.631 163.451 272.201 158.471L272.691 157.521V151.551L271.451 151.831C270.811 150.271 269.821 147.811 268.471 144.461C265.621 137.381 265.001 134.011 264.921 132.511C267.631 134.361 274.421 136.621 285.281 139.301C299.751 142.871 310.521 144.661 317.591 144.661C327.291 144.661 336.121 143.511 344.061 141.201C352.001 138.891 355.981 136.251 355.981 133.281C355.981 132.451 352.451 131.001 345.391 128.911C338.321 126.821 334.801 125.121 334.801 123.801C334.801 123.731 334.801 123.661 334.821 123.591C338.901 123.591 342.501 123.601 345.341 123.611C349.501 124.771 353.681 125.881 357.871 126.981C363.171 128.371 370.711 127.801 372.591 127.621C372.401 127.791 372.221 127.951 372.011 128.131C369.451 130.301 368.171 131.931 368.171 133.031C368.171 133.911 371.421 135.361 377.961 137.401C384.491 139.431 389.351 140.621 392.531 140.951C394.291 140.291 394.031 139.301 391.731 137.981C390.311 137.101 389.611 136.391 389.611 135.841C389.611 134.851 391.111 133.311 394.111 131.221C397.111 129.131 398.611 127.591 398.611 126.601C398.611 124.901 395.261 122.851 388.561 120.451C390.181 119.641 391.511 119.031 392.511 118.571C396.881 116.581 399.771 112.571 399.771 112.571C407.771 97.2914 410.571 85.9614 408.161 78.5714L404.611 67.6714L388.781 57.5114C382.391 53.5514 376.831 50.9014 372.111 49.5714C365.891 47.9314 359.951 48.1914 354.291 50.3714C351.001 51.6414 348.061 54.2114 345.501 58.0814C342.701 62.3014 341.771 66.1914 342.691 69.7414C344.111 71.9614 346.191 73.7414 348.951 75.0714C349.731 75.4014 351.671 76.0714 354.761 77.0814V78.6714C354.841 79.6914 354.881 80.4614 354.881 80.9714C354.881 82.1714 347.441 93.2914 346.971 96.9514L343.791 97.7114L343.671 97.5914C343.201 97.5114 342.331 97.4714 341.081 97.4714C340.231 97.4714 339.211 97.5014 338.021 97.5514C336.831 97.5014 335.811 97.4714 334.961 97.4714C333.701 97.4714 332.841 97.5114 332.371 97.5914L332.251 97.7114L329.071 96.9514C328.601 93.2914 335.561 82.1714 335.561 80.9714C335.561 80.4614 335.601 79.6914 335.681 78.6714V76.5014C335.681 73.6114 334.911 72.1514 333.391 72.1514C331.871 72.1514 330.271 72.4114 328.621 72.9214C327.521 74.8914 326.741 76.4114 326.271 77.5314C325.481 77.0114 324.191 75.7414 322.391 73.6914C320.821 71.9014 319.411 70.7514 318.151 70.2414C314.851 71.2614 311.951 74.0814 309.441 78.6714V78.7914C312.181 82.7114 307.111 94.3414 308.601 96.3014C307.501 96.7314 307.031 96.9414 307.191 96.9414C305.381 96.9414 310.311 86.7614 307.561 83.7814C304.031 80.0314 301.871 77.8914 301.091 77.3814L299.561 79.5514C299.941 81.1114 296.861 89.9514 297.471 97.4514C297.241 97.4514 297.021 97.4514 296.811 97.4514C295.551 97.4514 294.691 97.4914 294.221 97.5714L294.101 97.6914L290.921 96.9314C290.451 93.2714 297.411 82.1514 297.411 80.9514C297.411 80.4414 297.451 79.6714 297.531 78.6514V76.4814C297.531 73.5914 296.761 72.1314 295.241 72.1314C293.721 72.1314 292.121 72.3914 290.471 72.9014C289.371 74.8714 288.591 76.3914 288.121 77.5114C287.331 76.9914 286.041 75.7214 284.241 73.6714C282.671 71.8814 281.261 70.7314 280.001 70.2214C276.701 71.2414 266.601 82.7514 264.101 87.3414V87.4614C267.381 92.1414 267.171 91.9914 267.031 91.8414C267.201 92.0514 267.941 92.9914 270.451 96.2814C269.351 96.7114 268.881 96.9214 269.041 96.9214C267.571 96.9214 265.791 95.9214 263.701 93.9514V80.6214L263.251 57.8114V51.9214C263.251 34.7614 264.121 27.0414 264.971 23.5914L266.391 23.0014C266.761 23.3214 267.371 23.9714 268.301 25.3314C269.881 27.6214 271.151 28.9114 272.291 29.4014L273.501 29.9214L276.591 24.3114L275.811 19.7914L275.361 19.1614C270.741 12.6214 266.721 6.70141 263.401 1.54141L262.971 0.881406L260.021 -0.0585938L259.381 0.481406C258.621 1.13141 256.291 3.49141 244.931 16.5014L244.871 16.5714C244.361 17.1314 243.731 17.8514 242.941 18.7414C241.541 20.3714 240.391 21.0314 239.501 20.7214C239.111 20.5914 238.561 20.2614 237.851 19.7414C237.141 19.2214 236.631 18.8714 236.311 18.6814C235.931 19.3314 235.721 19.7714 235.651 19.9814C235.211 21.4714 235.941 23.5514 237.841 26.2014C239.741 28.8614 241.301 30.4014 242.531 30.8214C243.091 31.0114 244.431 30.0314 246.541 27.8614C247.491 32.1214 248.161 37.2814 248.541 43.3214C248.421 43.7214 248.311 44.1214 248.191 44.5314C246.521 50.2214 245.181 54.0314 244.191 55.9514C241.981 60.1214 239.341 61.6714 236.261 60.6114C235.201 60.2414 233.801 59.0914 232.051 57.1614C230.311 55.2214 229.141 53.6014 228.541 52.3014C227.531 51.9514 226.851 52.3814 226.501 53.5914C226.191 54.6614 227.501 57.7414 230.441 62.8314C232.781 67.0114 234.671 70.1014 236.121 72.0914C240.651 72.1714 244.221 71.2514 246.821 69.3314C247.531 68.8114 248.201 68.1914 248.831 67.4814C248.831 67.6814 248.831 67.8814 248.831 68.0814C248.781 71.6214 248.751 74.4614 248.731 76.6214C246.001 83.0314 241.691 90.0914 235.851 97.6914C233.871 100.321 231.161 103.661 227.691 107.731C224.371 108.511 220.561 112.121 215.841 118.891C210.471 126.591 207.971 132.481 207.971 137.411C207.971 141.281 208.711 144.841 210.171 147.981C210.991 149.821 212.491 152.141 214.731 155.011C215.881 156.491 216.831 157.801 217.571 158.921C216.771 160.271 215.441 162.391 213.211 165.701C209.181 171.851 208.271 174.461 207.921 176.041L207.551 177.721L208.271 179.161C210.331 183.301 212.051 186.301 213.531 188.331C214.601 189.791 216.051 191.391 217.861 193.141C216.901 194.751 215.681 196.641 214.211 198.781C211.481 202.761 209.611 205.801 208.501 208.091L208.001 209.121L208.061 210.371C208.401 217.471 212.491 223.701 220.241 228.881C225.501 232.441 230.431 234.521 234.931 235.071C236.361 236.081 237.871 237.121 239.491 238.201C243.171 240.671 246.591 242.801 249.671 244.531L249.791 244.601L249.901 244.681C258.501 251.161 269.041 259.411 281.271 269.241C282.461 270.781 283.811 272.461 285.321 274.271C283.291 272.901 280.301 271.071 276.331 268.781C269.121 264.601 256.601 254.451 254.791 253.931L252.791 255.591C253.261 256.441 255.221 258.781 258.681 262.621C261.431 265.601 270.801 275.891 270.801 277.851C270.801 277.681 270.601 278.191 270.211 279.381C268.411 277.761 257.691 267.641 254.081 264.661H253.961C249.731 267.391 247.131 270.541 246.191 274.111C246.661 275.471 247.721 277.011 249.371 278.711C251.261 280.671 252.431 282.071 252.901 282.931C251.871 283.441 250.471 284.291 248.661 285.481C248.191 287.271 247.951 289.001 247.951 290.661C247.951 292.321 249.291 293.151 251.951 293.151H253.951C254.891 293.071 255.601 293.021 256.071 293.021C256.421 293.021 257.721 293.851 259.421 295.001C245.411 308.401 238.321 326.741 238.321 349.711C238.321 370.751 252.211 394.321 279.611 419.751C302.581 441.061 341.601 451.841 367.821 454.841C368.161 454.951 368.511 455.061 368.851 455.161C368.851 455.161 374.071 455.681 380.671 455.721C380.721 455.721 380.771 455.721 380.821 455.721C386.561 455.741 393.321 455.401 398.611 454.041C406.291 452.061 389.511 450.101 377.671 446.161C365.471 439.451 335.041 419.671 320.481 385.911C316.241 376.081 316.661 364.991 321.711 352.631C326.771 340.261 333.911 331.731 343.111 327.051C350.801 323.141 357.941 322.881 364.521 326.241C364.081 326.191 363.681 326.161 363.331 326.161C362.911 326.161 362.551 326.161 356.481 328.381C352.941 329.661 350.671 330.511 349.681 330.911C348.321 331.471 347.201 332.421 346.341 333.771C345.481 335.131 345.071 336.401 345.071 337.651C345.071 341.091 348.771 342.821 350.121 343.441L356.971 346.001C357.671 346.271 358.191 346.511 358.571 346.701C358.071 347.001 357.321 347.401 356.221 347.891C354.501 348.661 351.811 349.671 348.231 350.891C343.191 352.611 343.041 352.751 342.661 353.151L341.401 354.441L343.111 357.001L343.591 357.231C344.001 357.431 344.561 357.711 355.381 359.771C366.081 361.811 367.291 361.811 367.751 361.811C368.501 361.811 369.641 361.591 374.651 358.941C375.521 358.481 376.291 358.051 376.991 357.661C376.891 357.841 376.791 358.021 376.691 358.211C374.271 362.841 371.821 367.381 369.321 371.851C375.281 375.411 378.951 377.551 380.361 378.221C384.641 380.041 388.651 380.601 392.391 379.891C396.931 377.181 399.811 371.921 401.041 364.101C402.181 356.931 401.621 350.721 399.351 345.481C395.461 336.471 389.381 329.181 381.081 323.611C376.571 320.681 370.951 317.971 364.241 315.461C362.761 313.551 359.171 309.961 350.611 303.371C351.631 303.161 352.401 302.651 352.911 301.801C353.681 300.521 352.381 297.491 348.831 292.271C345.291 287.071 342.241 283.661 339.251 281.541C336.901 279.881 334.581 278.621 332.361 277.781C331.071 277.281 329.341 276.811 327.121 276.371C325.981 276.141 324.981 275.921 324.141 275.701C323.491 274.841 322.481 273.461 320.941 271.251C318.051 267.191 316.671 265.751 315.781 264.941L314.841 264.091L313.811 263.721C310.861 262.671 308.671 261.991 307.121 261.641C306.011 261.391 304.721 261.221 303.281 261.111C302.501 260.081 301.611 258.841 300.631 257.401C298.791 254.731 297.341 252.761 296.181 251.391L295.661 250.771L294.891 250.261C291.151 247.771 287.221 246.511 283.171 246.511C286.781 242.591 292.411 237.931 300.201 232.391C303.101 230.331 305.781 228.561 308.261 227.061C311.241 228.421 315.311 230.271 320.501 232.631C327.751 235.951 333.661 238.781 338.201 241.111C345.011 244.611 350.011 246.451 353.191 246.641C354.481 246.731 356.551 246.151 359.381 244.901C361.821 243.741 365.001 243.531 368.901 244.271C374.631 247.211 380.401 255.901 386.201 270.331L388.241 271.901L391.101 272.411C391.921 270.531 390.761 266.371 387.651 259.941C382.821 249.921 373.351 239.481 359.231 228.601C358.841 228.301 358.441 228.001 358.051 227.711C361.011 228.851 363.421 229.471 365.321 229.581C366.941 229.691 369.191 229.091 372.441 227.671C374.451 226.711 377.181 226.531 380.561 227.131C385.751 229.961 391.171 238.321 396.661 251.981L396.881 252.531L399.741 254.731L404.521 255.591L405.161 254.131C406.301 251.511 405.221 247.081 401.671 239.751C396.711 229.471 386.951 218.681 372.641 207.661L372.671 207.781ZM223.461 124.671C223.661 124.441 223.851 124.241 224.041 124.051C225.131 124.271 226.541 124.531 228.381 124.851L230.141 125.151V127.091C230.141 131.701 230.311 137.931 230.641 145.671C224.601 143.911 221.851 138.321 221.851 128.201C221.851 127.781 221.851 126.521 223.461 124.661V124.671ZM355.831 96.0914C355.831 95.1514 363.641 85.4114 364.851 84.2714C366.071 83.1214 367.111 82.5414 367.971 82.5414C368.291 82.5414 368.721 82.8414 369.271 83.4314C369.821 84.0214 370.091 84.4914 370.091 84.8314C370.091 85.5214 362.441 95.0814 361.541 96.1414C360.641 97.2014 359.871 97.7314 359.251 97.7314H358.431C356.701 97.7314 355.841 97.1814 355.841 96.0814L355.831 96.0914ZM231.471 164.111C231.731 170.771 231.861 176.091 231.861 179.981C231.861 180.011 231.861 180.041 231.861 180.061C230.531 179.381 229.121 178.441 227.641 177.221C225.321 175.351 222.591 172.511 222.591 169.471C222.611 169.461 222.881 168.041 225.561 163.951C225.991 163.901 226.461 163.901 226.981 163.941C228.851 164.101 229.831 164.171 229.881 164.171C230.421 164.171 230.951 164.141 231.471 164.111ZM222.581 203.861C222.581 202.011 222.581 198.551 228.421 198.551C228.991 198.551 229.751 198.581 230.691 198.631C229.971 203.741 228.921 208.271 227.531 212.211C224.251 209.511 222.581 206.701 222.581 203.851V203.861ZM322.631 125.721C327.051 127.141 329.261 128.541 329.261 129.921C329.261 131.461 327.311 133.381 323.431 135.691C319.011 138.331 314.611 139.651 310.191 139.651C295.361 139.651 287.951 135.311 287.951 126.631C287.951 126.691 288.121 125.641 288.461 123.481C296.001 123.521 305.381 123.541 314.601 123.571C318.991 124.701 321.671 125.421 322.631 125.731V125.721ZM374.491 108.481C375.311 106.891 376.231 105.061 377.251 102.981C380.241 96.9014 386.541 87.3514 389.431 82.4714C389.131 85.8614 388.321 89.4014 386.991 93.0714C384.201 100.761 380.041 105.891 374.491 108.481ZM364.011 59.8914C369.471 57.7914 374.251 57.5214 378.361 59.0914C382.981 60.8314 386.251 64.6214 388.141 70.4414C388.891 72.7314 389.331 75.1114 389.491 77.5614L389.391 77.4114C388.601 77.9214 386.451 80.0514 382.921 83.8114C380.171 86.7914 370.701 96.9714 368.891 96.9714C369.051 96.9714 368.581 96.7514 367.481 96.3314C368.971 94.3714 378.291 82.7414 381.031 78.8214V78.7014C378.521 74.1014 375.621 71.2814 372.321 70.2714C371.061 70.7814 369.651 71.9314 368.081 73.7214C366.271 75.7714 364.981 77.0414 364.201 77.5614C363.731 76.4514 362.951 74.9214 361.851 72.9514C360.571 72.5614 359.341 72.3214 358.131 72.2214C358.501 70.7314 358.881 69.2414 359.271 67.7514C360.271 63.3314 361.851 60.7214 364.011 59.8914ZM320.411 84.8414C320.411 84.5014 320.691 84.0314 321.231 83.4414C321.781 82.8514 322.211 82.5514 322.531 82.5514C323.391 82.5514 324.431 83.1214 325.651 84.2814C326.871 85.4214 320.281 95.1614 320.281 96.1014C320.281 97.2014 319.421 97.7514 317.691 97.7514H317.111C316.291 96.7414 315.441 95.7214 314.731 94.8914C315.841 91.9914 320.411 85.4114 320.411 84.8414ZM282.231 84.8414C282.231 84.5014 282.511 84.0314 283.051 83.4414C283.601 82.8514 284.031 82.5514 284.351 82.5514C285.211 82.5514 286.251 83.1214 287.471 84.2814C288.691 85.4214 282.101 95.1614 282.101 96.1014C282.101 97.2014 281.241 97.7514 279.511 97.7514H278.691C278.061 97.7514 277.301 97.2214 276.401 96.1614C275.501 95.1014 282.241 85.5414 282.241 84.8514L282.231 84.8414ZM259.091 282.311C258.031 280.991 257.501 279.861 257.501 278.921C257.501 278.581 257.781 278.111 258.321 277.511C258.871 276.921 259.301 276.621 259.611 276.621C260.241 276.621 269.051 284.931 270.031 285.911C270.211 286.091 270.361 286.261 270.511 286.421L269.761 286.911C268.591 287.681 267.461 288.471 266.351 289.281C263.431 286.691 259.741 283.121 259.091 282.311ZM291.001 397.431C282.481 384.721 278.161 368.431 278.161 349.011C278.161 338.551 283.071 329.121 292.751 320.981C296.311 317.991 300.051 315.551 303.941 313.671C304.921 314.081 305.971 314.531 307.091 315.031C309.601 312.911 312.181 312.201 314.151 311.691C314.301 311.641 314.531 311.611 314.781 311.591L313.511 312.231C303.541 317.301 295.211 332.721 288.491 358.511C288.491 358.511 287.581 366.221 290.261 373.501C291.311 376.361 292.941 380.781 294.691 386.981C296.451 393.181 297.921 397.681 299.121 400.461C300.041 402.591 301.051 404.481 302.121 406.131C302.121 406.131 304.191 410.111 307.271 414.781C300.171 408.721 294.721 402.911 291.001 397.431ZM379.491 351.201L378.101 351.011L377.241 351.221C374.281 352.781 371.851 353.571 370.021 353.571C369.351 353.571 367.481 353.361 362.421 352.341C362.011 352.261 361.621 352.181 361.261 352.111C364.051 351.181 365.691 350.551 366.531 350.091C369.721 348.371 370.391 346.121 370.391 344.531C370.391 341.831 367.611 340.241 365.131 339.131L357.731 336.171C356.851 335.791 356.231 335.471 355.791 335.221C356.991 334.531 357.581 334.461 357.771 334.461H361.541C361.651 334.461 362.371 334.531 365.491 335.391C369.181 336.421 370.331 336.631 370.921 336.691L371.371 336.741L371.801 336.571C372.841 336.151 373.771 335.761 374.601 335.391C376.411 337.941 378.041 340.921 379.511 344.321C380.351 346.261 380.421 348.591 379.721 351.321L379.501 351.211L379.491 351.201ZM341.961 290.531C342.211 290.711 342.981 291.251 343.771 292.621C344.361 293.651 344.551 294.361 344.331 294.731C344.171 295.001 343.771 295.301 342.201 294.821C341.821 294.691 340.611 294.251 337.521 292.871L334.511 291.521L334.761 291.921C332.711 290.491 330.541 288.991 328.211 287.401C330.261 284.311 334.511 285.281 341.951 290.541L341.961 290.531ZM310.951 271.541C312.581 271.521 314.881 271.781 316.731 273.081C316.731 273.091 317.541 273.801 319.461 276.501C319.401 276.671 319.301 276.841 319.171 277.011C318.681 277.611 318.431 277.921 318.421 277.941C318.021 278.611 317.751 279.331 317.591 280.091C317.031 279.711 316.491 279.331 315.951 278.961V277.081C315.951 274.191 315.181 272.731 313.661 272.731C312.141 272.731 310.541 272.991 308.891 273.501C308.811 273.651 308.731 273.791 308.651 273.931C308.021 273.491 307.401 273.071 306.791 272.641C307.441 271.911 308.841 271.531 310.971 271.541H310.951ZM295.851 258.331C296.981 259.121 299.071 260.611 297.841 262.671C297.701 262.911 297.471 263.221 297.181 263.621C296.861 264.051 296.651 264.351 296.541 264.521C296.401 264.761 296.281 265.021 296.181 265.301C291.321 261.921 287.611 259.321 284.991 257.441C285.891 256.931 287.181 256.631 288.861 256.531C291.561 256.361 293.921 256.971 295.861 258.341L295.851 258.331ZM345.281 235.871C343.161 235.471 333.951 231.091 317.651 222.721L317.321 222.551C320.011 221.491 322.311 220.971 324.241 220.971C329.851 220.971 338.831 225.651 351.551 235.221C351.521 235.221 351.491 235.241 351.461 235.251C348.921 235.961 346.861 236.171 345.291 235.881L345.281 235.871ZM363.221 213.961C360.961 214.591 359.161 214.791 357.881 214.561C356.791 214.361 351.821 212.401 330.751 201.581L325.311 198.791C325.231 198.741 324.471 198.181 322.051 194.691C321.331 193.681 320.791 192.891 320.381 192.281C321.351 192.071 322.461 191.961 323.721 191.961C326.671 191.961 329.281 192.541 331.481 193.671C344.071 200.131 354.761 206.451 363.251 212.461C363.841 212.881 364.311 213.231 364.691 213.521C364.291 213.661 363.811 213.811 363.221 213.971V213.961Z" fill="black"/>
<path d="M193.629 188.41C195.109 186.38 196.829 183.37 198.889 179.24L199.609 177.8L199.239 176.12C198.889 174.54 197.979 171.93 193.949 165.78C191.729 162.47 190.389 160.35 189.589 159C190.329 157.88 191.279 156.57 192.429 155.09C194.669 152.22 196.169 149.9 196.989 148.06C198.449 144.92 199.189 141.36 199.189 137.49C199.189 132.56 196.689 126.67 191.319 118.97C187.459 113.44 184.219 110.03 181.349 108.54C177.069 103.58 173.829 99.62 171.549 96.59C166.909 90.56 163.249 84.88 160.569 79.59C160.569 79.4 160.569 79.22 160.569 79.02C160.569 76.78 160.529 73.15 160.459 68.15C160.459 67.95 160.459 67.77 160.459 67.57C161.079 68.27 161.739 68.87 162.449 69.39C165.049 71.31 168.609 72.23 173.149 72.15C174.599 70.16 176.489 67.08 178.829 62.89C181.769 57.8 183.079 54.72 182.769 53.65C182.419 52.44 181.729 52.02 180.729 52.36C180.129 53.66 178.959 55.28 177.219 57.22C175.479 59.15 174.069 60.3 173.009 60.67C169.939 61.73 167.289 60.18 165.079 56.01C164.079 54.08 162.749 50.28 161.079 44.59C160.959 44.2 160.859 43.83 160.749 43.45C161.129 37.39 161.799 32.21 162.749 27.94C164.849 30.1 166.189 31.08 166.749 30.88C167.979 30.45 169.539 28.91 171.439 26.26C173.339 23.6 174.069 21.53 173.629 20.04C173.569 19.83 173.349 19.4 172.969 18.74C172.649 18.93 172.139 19.28 171.429 19.8C170.719 20.32 170.169 20.65 169.779 20.78C168.889 21.09 167.739 20.43 166.339 18.8C166.179 18.62 166.039 18.46 165.889 18.29L164.379 16.56C153.009 3.55 150.689 1.19 149.929 0.54L149.289 0L146.349 0.94L145.919 1.6C142.599 6.75 138.579 12.68 133.959 19.22L133.509 19.85L132.729 24.37L135.819 29.98L137.029 29.46C138.169 28.97 139.439 27.68 141.019 25.39C141.949 24.03 142.569 23.38 142.929 23.06L144.349 23.65C144.559 24.52 144.779 25.66 144.979 27.16V94.34C143.039 96.09 141.379 96.97 139.999 96.97C140.159 96.97 139.689 96.75 138.589 96.33C141.099 93.04 141.839 92.1 142.009 91.89C141.869 92.05 141.659 92.2 144.939 87.51V87.39C142.429 82.79 132.329 71.28 129.039 70.27C127.779 70.78 126.369 71.93 124.799 73.72C122.989 75.77 121.699 77.04 120.919 77.56C120.449 76.45 119.669 74.92 118.569 72.95C116.919 72.44 115.329 72.18 113.799 72.18C112.269 72.18 111.509 73.64 111.509 76.53V78.7C111.589 79.72 111.629 80.49 111.629 81C111.629 82.2 118.589 93.32 118.119 96.98L114.939 97.74L114.819 97.62C114.349 97.54 113.479 97.5 112.229 97.5C112.019 97.5 111.799 97.5 111.569 97.5C112.179 90 109.099 81.16 109.479 79.6L107.949 77.43C107.159 77.94 105.009 80.07 101.479 83.83C98.7292 86.81 103.649 96.99 101.849 96.99C102.009 96.99 101.539 96.77 100.439 96.35C101.929 94.39 96.8492 82.76 99.5992 78.84V78.72C97.0892 74.12 94.1892 71.3 90.8892 70.29C89.6392 70.8 88.2192 71.95 86.6492 73.74C84.8392 75.79 83.5492 77.06 82.7692 77.58C82.2992 76.47 81.5192 74.94 80.4192 72.97C78.7692 72.46 77.1792 72.2 75.6492 72.2C74.1192 72.2 73.3592 73.66 73.3592 76.55V78.72C73.4392 79.74 73.4792 80.51 73.4792 81.02C73.4792 82.22 80.4392 93.34 79.9692 97L76.7892 97.76L76.6692 97.64C76.1992 97.56 75.3292 97.52 74.0792 97.52C73.2292 97.52 72.2092 97.55 71.0192 97.6C69.8292 97.55 68.8092 97.52 67.9592 97.52C66.6992 97.52 65.8392 97.56 65.3692 97.64L65.2492 97.76L62.0692 97C61.5992 93.34 54.1592 82.22 54.1592 81.02C54.1592 80.51 54.1992 79.74 54.2792 78.72V77.13C57.3692 76.12 59.3092 75.45 60.0892 75.12C62.8392 73.79 64.9292 72.01 66.3492 69.79C67.2692 66.24 66.3392 62.36 63.5392 58.13C60.9792 54.25 58.0492 51.68 54.7492 50.42C49.0792 48.24 43.1392 47.97 36.9292 49.62C32.2092 50.95 26.6492 53.6 20.2592 57.56L4.42919 67.72L0.879191 78.62C-1.53081 86.01 1.26919 97.34 9.26919 112.62C9.26919 112.62 12.1692 116.63 16.5292 118.62C17.6892 119.15 19.2892 119.88 21.2692 120.9C15.3092 123.12 12.3192 125.04 12.3192 126.65C12.3192 127.64 13.8292 129.17 16.8192 131.27C19.8292 133.36 21.3192 134.9 21.3192 135.89C21.3192 136.44 20.6192 137.15 19.1992 138.03C16.8992 139.35 16.6492 140.34 18.3992 141C21.5792 140.67 26.4392 139.48 32.9692 137.45C39.5092 135.42 42.7592 133.96 42.7592 133.08C42.7592 131.98 41.4892 130.35 38.9192 128.18C38.7792 128.06 38.6492 127.94 38.5092 127.82C41.6292 128 47.0692 128.1 51.1592 127.02C56.4592 125.63 61.7492 124.23 66.9892 122.71C67.1192 122.62 67.2492 122.53 67.3792 122.44C69.8692 122.44 72.6392 122.44 75.6092 122.43C75.9492 122.9 76.1192 123.37 76.1192 123.85C76.1192 125.17 72.5992 126.87 65.5292 128.96C58.4692 131.05 54.9392 132.5 54.9392 133.33C54.9392 136.3 58.9192 138.94 66.8592 141.25C74.7992 143.56 83.6392 144.71 93.3292 144.71C100.399 144.71 111.169 142.92 125.639 139.35C132.909 137.55 138.349 135.95 141.969 134.53C141.569 136.49 140.669 139.61 138.699 144.51C137.349 147.86 136.359 150.32 135.719 151.88L134.479 151.6V157.57L134.969 158.52C137.539 163.5 138.989 166.35 139.289 167.03C140.509 170 141.129 172.82 141.129 175.41C141.129 177.19 140.629 180.55 138.259 186.4C134.719 195.14 134.719 195.41 134.719 197.12V198.2L135.139 199.11C137.909 205.04 140.529 210.11 142.959 214.31C141.399 213.14 139.709 211.86 139.099 211.41C114.979 193.46 108.169 190.79 106.249 190.79C104.889 190.79 102.679 191.33 99.1292 192.96C98.8892 193.04 98.6592 193.1 98.4092 193.18C99.0092 192.38 99.7992 191.38 100.849 190.16C106.219 183.89 106.819 181.97 106.079 180.28C104.449 176.54 99.2992 176.57 95.5792 176.93C90.4992 177.41 85.8092 178.73 81.6592 180.86C64.6392 189.6 49.9892 198.67 38.0892 207.84C23.7792 218.86 14.0192 229.65 9.05919 239.93C5.50919 247.26 4.42919 251.7 5.56919 254.31L6.20919 255.77L10.9892 254.91L13.8492 252.71L14.0692 252.16C19.5592 238.49 24.9792 230.13 30.1692 227.31C33.5392 226.7 36.2692 226.89 38.2892 227.85C41.5392 229.28 43.7792 229.87 45.4092 229.76C45.7792 229.74 46.1692 229.69 46.5692 229.63C42.0392 233.47 38.5392 236.74 36.0892 239.43C28.6992 246.52 23.3792 253.41 20.1492 260.12C17.0292 266.55 15.8792 270.71 16.6992 272.59L19.5592 272.08L21.5992 270.51C27.3992 256.08 33.1692 247.39 38.8992 244.45C42.8092 243.71 45.9792 243.92 48.4192 245.08C51.2592 246.33 53.3292 246.91 54.6092 246.82C57.7892 246.63 62.7892 244.78 69.5992 241.29C74.1492 238.96 80.0492 236.12 87.2992 232.81C93.0192 230.21 97.3792 228.23 100.409 226.84C102.519 228.16 104.769 229.66 107.169 231.37C115.969 237.62 122.009 242.76 125.509 246.97C125.079 246.9 124.639 246.84 124.169 246.8C119.379 246.29 114.729 247.52 110.349 250.44L109.579 250.95L109.059 251.57C107.909 252.94 106.449 254.91 104.609 257.58C103.619 259.02 102.729 260.26 101.959 261.29C100.519 261.4 99.2292 261.58 98.1192 261.82C96.5692 262.17 94.3792 262.85 91.4292 263.9L90.3992 264.27L89.4592 265.12C88.5692 265.92 87.1792 267.36 84.2992 271.43C82.7592 273.64 81.7492 275.02 81.0992 275.88C80.2592 276.1 79.2592 276.33 78.1192 276.55C75.8992 276.99 74.1692 277.46 72.8792 277.96C70.6592 278.79 68.3392 280.06 65.9892 281.72C62.9892 283.84 59.9492 287.24 56.4092 292.45C52.8592 297.67 51.5592 300.7 52.3292 301.98C52.9092 302.96 53.8492 303.5 55.1192 303.63C46.5092 310.37 43.5592 313.67 42.5792 315.22L42.8892 315.5C36.0092 318.04 30.2592 320.81 25.6692 323.79C17.3692 329.36 11.2792 336.65 7.39919 345.66C5.13919 350.9 4.56919 357.11 5.70919 364.28C6.93919 372.1 9.82919 377.36 14.3592 380.07C18.0992 380.78 22.1092 380.22 26.3892 378.4C27.7892 377.72 31.4592 375.59 37.4292 372.03C34.9292 367.56 32.4792 363.02 30.0592 358.39C29.9492 358.19 29.8392 358 29.7292 357.8C30.4492 358.2 31.2492 358.64 32.1492 359.12C37.1592 361.77 38.2992 361.99 39.0492 361.99C39.5092 361.99 40.7192 361.99 51.4192 359.95C62.2392 357.89 62.7992 357.61 63.2092 357.41L63.6892 357.18L65.3992 354.62L64.1392 353.33C63.7592 352.93 63.6092 352.79 58.5692 351.07C54.9892 349.85 52.3092 348.84 50.5892 348.07C49.4892 347.58 48.7492 347.19 48.2392 346.88C48.6192 346.69 49.1392 346.45 49.8392 346.18L56.6892 343.62C58.0392 343 61.7392 341.27 61.7392 337.83C61.7392 336.58 61.3192 335.31 60.4692 333.95C59.6092 332.6 58.4892 331.65 57.1292 331.09C56.1392 330.69 53.8692 329.84 50.3292 328.56C44.2592 326.34 43.8992 326.34 43.4792 326.34C43.1092 326.34 42.6792 326.37 42.2092 326.43C48.7992 323.05 55.9492 323.31 63.6392 327.23C72.8392 331.91 79.9792 340.44 85.0392 352.81C90.0992 365.17 90.5092 376.26 86.2692 386.09C71.7092 419.85 41.2792 439.63 29.0792 446.34C17.2492 450.28 0.459192 452.25 8.13919 454.22C11.1492 455 14.6492 455.44 18.1592 455.67L18.3992 455.89C19.2592 455.89 20.1692 455.85 21.1192 455.82C29.8692 456.13 37.8992 455.33 37.8992 455.33C39.9492 454.74 42.0192 453.99 44.0892 453.15C71.6492 448.35 107.889 437.16 127.759 418.72C155.159 393.28 169.049 369.72 169.049 348.68C169.049 325.43 161.789 306.93 147.439 293.49C147.789 293.3 148.039 293.18 148.169 293.18C148.639 293.18 149.349 293.23 150.289 293.31H152.289C154.949 293.31 156.289 292.48 156.289 290.82C156.289 289.16 156.049 287.43 155.579 285.64C153.769 284.45 152.359 283.6 151.339 283.09C151.819 282.24 152.989 280.83 154.869 278.87C156.519 277.16 157.579 275.63 158.049 274.27C157.109 270.69 154.519 267.54 150.279 264.82H150.159C146.549 267.8 135.829 277.92 134.029 279.54C133.639 278.34 133.439 277.83 133.439 278.01C133.439 276.05 142.809 265.76 145.559 262.78C149.019 258.95 150.979 256.61 151.449 255.75L149.449 254.09C147.639 254.6 135.119 264.76 127.909 268.94C125.249 270.48 123.039 271.8 121.249 272.92L121.219 272.84C121.789 272.14 122.339 271.46 122.859 270.8C136.499 259.8 148.139 250.66 157.469 243.64L157.699 243.49C160.779 241.75 164.209 239.62 167.889 237.15C168.799 236.54 169.669 235.95 170.519 235.36C175.469 235.17 180.979 233.05 186.909 229.03C194.649 223.84 198.749 217.61 199.089 210.52L199.149 209.27L198.649 208.24C197.539 205.96 195.669 202.91 192.939 198.93C191.469 196.79 190.249 194.9 189.289 193.29C191.099 191.54 192.549 189.94 193.619 188.48L193.629 188.41ZM47.5092 212.45C55.9992 206.45 66.6892 200.13 79.2792 193.66C81.4792 192.53 84.0892 191.96 87.0392 191.95C88.2992 191.95 89.4192 192.07 90.3792 192.27C89.9692 192.88 89.4292 193.67 88.7092 194.68C86.2892 198.16 85.5292 198.72 85.4492 198.78L80.0192 201.57C58.9492 212.39 53.9792 214.34 52.8892 214.55C51.6092 214.78 49.8092 214.58 47.5492 213.95C46.9592 213.79 46.4792 213.64 46.0792 213.5C46.4592 213.21 46.9392 212.86 47.5192 212.44L47.5092 212.45ZM90.1792 222.72C73.8792 231.09 64.6692 235.47 62.5492 235.87C60.9792 236.16 58.9192 235.95 56.3792 235.24C55.8092 235.08 55.3092 234.93 54.8592 234.77C68.1092 224.69 77.4192 219.76 83.1692 219.76C85.4492 219.76 88.2592 220.49 91.6092 221.98L90.1792 222.71V222.72ZM109.409 258.33C111.349 256.96 113.709 256.35 116.409 256.52C118.239 256.63 119.609 256.99 120.509 257.59C117.669 259.61 113.909 262.23 109.169 265.53C109.049 265.17 108.909 264.83 108.719 264.53C108.609 264.35 108.399 264.05 108.079 263.63C107.779 263.24 107.559 262.92 107.419 262.68C106.179 260.62 108.279 259.14 109.409 258.34V258.33ZM88.5292 273.08C90.3692 271.78 92.6792 271.52 94.3092 271.54C96.6092 271.54 98.0592 271.97 98.6292 272.82C95.3092 275.11 91.6792 277.61 87.7292 280.32C87.5792 279.47 87.2892 278.67 86.8492 277.93C86.8392 277.91 86.5892 277.6 86.0992 277C85.9692 276.83 85.8692 276.67 85.8092 276.49C87.7292 273.78 88.5292 273.08 88.5392 273.07L88.5292 273.08ZM67.7392 292.86C64.6592 294.24 63.4492 294.69 63.0592 294.81C61.4792 295.29 61.0892 294.99 60.9292 294.72C60.7092 294.35 60.8992 293.64 61.4892 292.61C62.2792 291.25 63.0392 290.7 63.2992 290.52C70.8892 285.16 75.1692 284.25 77.1692 287.56C74.6492 289.29 72.3192 290.92 70.1492 292.45L70.7492 291.51L67.7392 292.86ZM45.2892 334.46H49.0592C49.2592 334.46 49.8392 334.53 51.0392 335.22C50.6092 335.47 49.9892 335.79 49.0992 336.17L41.6992 339.13C39.2092 340.24 36.4292 341.83 36.4292 344.53C36.4292 346.12 37.0992 348.37 40.2892 350.09C41.1292 350.55 42.7692 351.18 45.5492 352.11C45.1892 352.18 44.8092 352.27 44.3892 352.34C39.3292 353.36 37.4692 353.57 36.7892 353.57C34.9592 353.57 32.5292 352.78 29.5692 351.22L28.7092 351.01L27.3192 351.2L27.0492 351.33C26.3392 348.6 26.4092 346.25 27.2492 344.31C28.7192 340.9 30.3592 337.92 32.1692 335.37C33.0092 335.74 33.9492 336.14 35.0092 336.57L35.4392 336.74L35.8892 336.69C36.4792 336.63 37.6292 336.42 41.3192 335.39C44.4492 334.53 45.1592 334.47 45.2692 334.46H45.2892ZM116.379 396.25C112.729 401.63 107.389 407.33 100.469 413.28C103.009 409.3 104.649 406.14 104.649 406.14C105.719 404.49 106.729 402.6 107.649 400.47C108.849 397.69 110.329 393.2 112.079 386.99C113.829 380.8 115.459 376.38 116.509 373.51C119.189 366.23 118.279 358.52 118.279 358.52C111.559 332.73 103.219 317.31 93.2592 312.24L84.4692 307.77C95.4592 308.16 105.599 312.19 114.639 319.78C124.319 327.92 129.229 337.35 129.229 347.81C129.229 367.23 124.909 383.52 116.379 396.24V396.25ZM145.929 277.51C146.479 278.11 146.749 278.58 146.749 278.92C146.749 279.86 146.219 280.98 145.159 282.31C144.659 282.94 142.369 285.18 140.019 287.36C139.229 286.8 138.439 286.25 137.619 285.71L136.609 285.05V283.63C139.569 280.85 144.179 276.62 144.639 276.62C144.959 276.62 145.389 276.92 145.929 277.51ZM183.699 124.67C185.309 126.52 185.309 127.79 185.309 128.21C185.309 138.23 182.609 143.8 176.699 145.62C177.059 137.37 177.249 130.74 177.249 125.9V124.74C177.469 124.39 177.679 124.1 177.889 123.85L179.019 123.66C180.169 123.46 181.149 123.29 181.989 123.13C182.549 123.48 183.119 124 183.709 124.68L183.699 124.67ZM175.539 178.79C175.539 175.12 175.649 170.21 175.879 164.12C176.349 164.14 176.809 164.17 177.289 164.17C177.339 164.17 178.319 164.1 180.189 163.94C180.709 163.9 181.179 163.9 181.609 163.95C184.289 168.05 184.569 169.46 184.579 169.47C184.579 172.5 181.849 175.35 179.529 177.22C178.139 178.37 176.809 179.27 175.549 179.94C175.549 179.55 175.539 179.18 175.539 178.78V178.79ZM50.5992 97.74H49.7792C49.1492 97.74 48.3892 97.21 47.4892 96.15C46.5892 95.09 38.9392 85.53 38.9392 84.84C38.9392 84.5 39.2192 84.03 39.7592 83.44C40.3092 82.85 40.7392 82.55 41.0592 82.55C41.9192 82.55 42.9592 83.12 44.1792 84.28C45.3992 85.42 53.1992 95.16 53.1992 96.1C53.1992 97.2 52.3392 97.75 50.6092 97.75L50.5992 97.74ZM176.869 198.61C177.629 198.57 178.249 198.55 178.739 198.55C184.579 198.55 184.579 202 184.579 203.86C184.579 206.55 183.089 209.21 180.139 211.78C178.719 207.96 177.629 203.58 176.869 198.61ZM121.539 84.27C122.759 83.12 123.799 82.54 124.659 82.54C124.979 82.54 125.409 82.84 125.959 83.43C126.509 84.02 126.779 84.49 126.779 84.83C126.779 85.52 133.519 95.08 132.619 96.14C131.719 97.2 130.949 97.73 130.329 97.73H129.509C127.779 97.73 126.919 97.18 126.919 96.08C126.919 95.14 120.329 85.4 121.549 84.26L121.539 84.27ZM83.3692 84.27C84.5892 83.12 85.6292 82.54 86.4892 82.54C86.8092 82.54 87.2392 82.84 87.7892 83.43C88.3392 84.02 88.6092 84.49 88.6092 84.83C88.6092 85.4 93.1792 91.98 94.2892 94.88C93.5792 95.7 92.7392 96.73 91.9092 97.74H91.3292C89.5992 97.74 88.7392 97.19 88.7392 96.09C88.7392 95.15 82.1492 85.41 83.3692 84.27ZM20.8792 70.44C22.7792 64.62 26.0392 60.84 30.6592 59.09C34.7692 57.52 39.5492 57.79 45.0092 59.89C47.1692 60.72 48.7592 63.33 49.7492 67.75C50.1392 69.24 50.5192 70.73 50.8892 72.22C49.6892 72.31 48.4492 72.55 47.1692 72.95C46.0692 74.92 45.2892 76.44 44.8192 77.56C44.0292 77.04 42.7392 75.77 40.9392 73.72C39.3692 71.93 37.9592 70.78 36.6992 70.27C33.3992 71.29 30.4992 74.11 27.9892 78.7V78.82C30.7292 82.74 40.0492 94.37 41.5392 96.33C40.4392 96.76 39.9692 96.97 40.1292 96.97C38.3192 96.97 28.8492 86.79 26.0992 83.81C22.5692 80.06 20.4092 77.92 19.6292 77.41L19.5292 77.56C19.6892 75.1 20.1292 72.73 20.8792 70.44ZM34.5292 108.48C28.9792 105.89 24.8192 100.76 22.0292 93.07C20.6992 89.39 19.8892 85.86 19.5892 82.47C22.4792 87.36 28.7792 96.9 31.7692 102.98C32.7892 105.06 33.7092 106.89 34.5292 108.48ZM100.729 139.65C96.3092 139.65 91.9092 138.34 87.4892 135.69C83.6092 133.38 81.6592 131.46 81.6592 129.92C81.6592 128.54 83.8692 127.14 88.2892 125.72C89.5192 125.33 93.5792 124.26 100.469 122.5C100.509 122.44 100.529 122.4 100.559 122.34C108.539 122.32 116.219 122.29 122.269 122.25C122.739 125.23 122.969 126.69 122.969 126.62C122.969 135.3 115.559 139.64 100.729 139.64V139.65Z" fill="black"/>
</g>
<defs>
<clipPath id="clip0_1573_3552">
<rect width="409.02" height="455.81" fill="white"/>
</clipPath>
</defs>
</svg>
