<?xml version="1.0" encoding="UTF-8"?>
<svg id="Layer_1" data-name="Layer 1" xmlns="http://www.w3.org/2000/svg" width="742" height="1024" viewBox="0 0 742 1024">
  <defs>
    <style>
      .cls-1 {
        stroke: #333;
        stroke-linecap: square;
        stroke-linejoin: bevel;
        stroke-width: 4px;
      }

      .cls-1, .cls-2 {
        fill: #000;
      }

      .cls-2 {
        stroke-width: 0px;
      }
    </style>
  </defs>
  <path class="cls-2" d="M651.03,441.23c-13.81-9.8-29.69-19.47-47.41-28.88,5.04-1.74,9.4-3.67,13.29-5.89,2.77.95,5.94,1.93,9.65,2.99,12.61,3.62,21.92,5.63,29.29,6.33l8.24.78,7.82-2.7c14.98-5.16,25.24-17.51,27.17-32.52,4.44-6.03,7.92-13.91,7.92-23.88,0-1.54-.1-3.57-.47-5.93,10.95-20.23,22.36-48.24,12.97-74.8l-10.09-28.51-36.26-21.44-.51-.3c-12.9-7.36-24.34-12.28-34.97-15.04l-.54-.14c-7.05-1.72-14.16-2.59-21.13-2.59-9.56,0-18.99,1.62-28.03,4.82-12.57,4.44-23.27,12.75-31.77,24.63-.55.76-1.07,1.52-1.58,2.28l-7.86-2.94-12.08,3.44c-3.04.86-6.46,2.14-10.06,4-1.96-.75-3.97-1.35-6-1.8l-8.19-4.89,10.97-18.37-5.52-29.58-6.25-8.13c-6.76-8.82-12.61-16.75-17.37-23.56l-8.32-11.92-36.17-10.68-16.5,12.85c-2.18,1.7-4.47,3.69-12.62,12.08l-12.72-6.88-18.99,30.42c-1.57,2.51-3.55,5.95-4.96,10.35l-.03.11c-1.83,5.74-3.48,15.48.4,27.09-4.83,3.64-8.86,8.38-11.73,13.94-2.88-5.56-6.91-10.3-11.73-13.94,3.89-11.62,2.23-21.36.4-27.1-1.42-4.45-3.42-7.92-5-10.46l-19.02-30.44-12.68,6.88c-8.13-8.37-10.43-10.36-12.65-12.1l-16.44-12.8-36.15,10.67-8.31,11.9c-4.77,6.83-10.62,14.76-17.37,23.57l-6.25,8.15-5.52,29.57,10.86,18.18-8.52,5.09c-2.02.44-4.03,1.04-5.98,1.79-3.6-1.86-7.03-3.13-10.06-4l-12.08-3.44-7.86,2.94c-.49-.73-1-1.47-1.53-2.21-8.55-11.94-19.25-20.25-31.82-24.69-9.04-3.2-18.48-4.82-28.04-4.82-6.98,0-14.09.87-21.13,2.59l-.54.14c-10.63,2.75-22.07,7.67-34.97,15.04l-.26.15-36.52,21.59-10.08,28.51c-10.11,28.58,3.87,58.83,15.44,79.26-.02.53-.03,1.02-.03,1.46,0,9.97,3.49,17.85,7.92,23.89,1.94,15,12.19,27.35,27.17,32.51l7.82,2.7,8.24-.78c7.37-.7,16.68-2.71,29.28-6.33,3.72-1.06,6.9-2.05,9.67-3,3.85,2.19,8.16,4.1,13.14,5.83-17.76,9.43-33.67,19.12-47.5,28.93-27.33,19.39-45.77,38.64-56.32,58.8-5.01,9.53-16.76,31.86-6.08,54.47l13.3,28.08,4.47-.74,11.62,24.57,16.53-2.73s-.59.36-.59.36c-19.11,11.81-33.44,27.71-42.59,47.25-6.84,14.62-8.74,31.12-5.65,48.98,4.91,28.71,20.4,42.7,32.53,49.37l5.58,3.07,6.28,1.09c3.75.65,7.61.98,11.46.98,9.09,0,18.35-1.83,27.52-5.43l.78-.3.76-.34c2.83-1.26,6.99-3.37,19.89-10.48l3.56-1.96c-17.43,19.73-38.62,32.52-49.04,38.1-4.34,1.18-9.38,2.29-13.93,3.29-4.91,1.08-9.16,2.02-12.97,3.1-29.66,8.39-32.14,31.67-32.2,38.61-.11,14.4,8.3,33.23,32.36,38.94,2.65.63,5.42,1.16,8.35,1.61l2.25,1.93,14.35-.14c1.23-.01,2.54-.04,3.9-.08,2.07.05,4.2.08,6.36.08,12.09,0,21.76-.85,22.82-.95l3.18-.29,3.09-.82c3.02-.8,6.13-1.75,9.42-2.9,31.69-5.36,101.52-20.73,143.77-56.83,23.81-20.36,42.27-40.67,54.87-60.35,14.57-22.77,21.96-45.59,21.96-67.83,0-28.59-6.84-54.29-20.05-75.98.29-1.97.44-3.96.44-5.93,0-2.65-.18-5.33-.53-8.02.29-.67.56-1.36.82-2.04l4.4-11.76-3.44-12.07c-.71-2.49-1.69-5.25-3.06-8.15,10.19-2.22,20.52-6.57,30.86-13.02,1.91-1.18,3.72-2.39,5.45-3.62,1.72,1.22,3.53,2.43,5.44,3.61,8.98,5.6,17.99,9.64,26.88,12.05-1.61,3.26-2.74,6.35-3.53,9.12l-3.44,12.07,4.4,11.76c.26.69.53,1.37.82,2.04-.35,2.69-.53,5.37-.53,8.02,0,4.36.72,8.77,2.14,13.02-11.17,20.52-16.94,44.34-16.94,70.59,0,22.24,7.39,45.06,21.96,67.83,12.6,19.69,31.06,39.99,54.88,60.36,40.56,34.66,105.05,52.71,153.15,58.26l2.17.57,3.17.29c.98.09,9.9.88,21.28.95l12.83.15.6-.44c8.85-.47,16.55-1.5,23.33-3.1,24.06-5.7,32.47-24.54,32.36-38.94-.05-6.93-2.54-30.21-32.2-38.61-3.81-1.08-8.06-2.02-12.97-3.1-4.55-1-9.59-2.11-13.93-3.29-10.41-5.57-31.61-18.37-49.04-38.1l3.56,1.96c12.9,7.1,17.06,9.22,19.9,10.48l.76.34.78.3c9.18,3.6,18.44,5.43,27.52,5.43,3.85,0,7.7-.33,11.46-.98l6.28-1.09,5.58-3.07c12.13-6.67,27.62-20.66,32.52-49.29,3.11-17.94,1.21-34.45-5.63-49.07-9.15-19.54-23.48-35.43-42.59-47.25l-.24-.15s-.73-.43-.97-.58l18.76,3.1,11.95-25.25,8.66,1.43,13.31-28.12c10.66-22.58-1.08-44.9-6.06-54.37-10.59-20.23-29.02-39.48-56.35-58.86ZM363.41,287.28c2.21-3.53,4.94-7.92,7.22-12.98,2.28,5.06,5,9.44,7.21,12.98,2.47,4.06,4.67,7.5,6.7,10.46-.41.47-.84.95-1.29,1.45-5.38,3.05-10.11,6.89-14.28,10.99-3.23-3.17-6.45-5.87-9.73-8.14-1.11-1.2-2.15-2.34-3.13-3.43,2.19-3.15,4.58-6.87,7.29-11.33Z"/>
  <path class="cls-2" d="M466.54,308.29c-.12-.13-.07-.07,0,0h0Z"/>
  <path class="cls-2" d="M274.33,308.29c.07-.07.12-.13,0,0h0Z"/>
  <g>
    <path class="cls-1" d="M628.94,472.36c-18.28-12.98-40.82-25.83-66.98-38.2-6.38-3.02-13.58-4.89-21.4-5.57-5.72-.51-13.63-.55-16.14,4.75-1.13,2.4-.22,5.11,8.04,13.99,1.61,1.73,2.83,3.14,3.75,4.27-6.79-2.06-12.19-2.58-16.36-1.64-.31-.03-.6-.04-.86-.04-2.95,0-13.42,3.79-50.49,29.2-1.32.91-5.89,4.08-8.58,5.94,4.38-6.55,9.17-14.93,14.31-25.05l.65-1.28v-1.52c0-2.41,0-2.79-5.44-15.17-3.65-8.29-4.41-13.04-4.41-15.56,0-3.67.96-7.65,2.83-11.86.45-.96,2.68-5,6.63-12.05l.75-1.34v-8.45l-1.91.4c-.98-2.21-2.5-5.69-4.58-10.44-4.38-10.03-5.34-14.8-5.46-16.92,4.16,2.61,14.6,5.82,31.3,9.62,22.24,5.05,38.81,7.59,49.67,7.59,14.91,0,28.49-1.63,40.69-4.9,12.21-3.27,18.32-7.01,18.32-11.21,0-1.17-5.43-3.23-16.28-6.18-10.87-2.96-16.28-5.37-16.28-7.24,0-.1.01-.2.02-.3,6.27.01,11.8.02,16.17.02,6.39,1.65,12.82,3.22,19.26,4.77,8.15,1.96,19.74,1.16,22.62.91-.29.24-.57.47-.89.72-3.94,3.08-5.9,5.39-5.9,6.94,0,1.24,5,3.31,15.06,6.18,10.04,2.88,17.51,4.56,22.39,5.02,2.7-.93,2.3-2.34-1.23-4.21-2.19-1.24-3.26-2.25-3.26-3.03,0-1.4,2.3-3.58,6.92-6.53,4.6-2.96,6.92-5.14,6.92-6.53,0-2.41-5.16-5.31-15.45-8.71,2.49-1.15,4.53-2.01,6.07-2.66,6.71-2.82,11.17-8.5,11.17-8.5,12.3-21.63,16.6-37.67,12.9-48.13l-5.46-15.44-24.33-14.39c-9.82-5.61-18.37-9.36-25.63-11.24-9.56-2.33-18.69-1.95-27.4,1.13-5.07,1.79-9.57,5.43-13.5,10.92-4.3,5.98-5.74,11.48-4.32,16.5,2.18,3.14,5.39,5.66,9.62,7.55,1.2.47,4.18,1.42,8.93,2.85v2.25c.12,1.44.18,2.53.18,3.25,0,1.69-11.43,17.44-12.15,22.63l-4.88,1.07-.18-.18c-.72-.12-2.05-.18-3.98-.18-1.31,0-2.88.04-4.71.11-1.83-.07-3.4-.11-4.71-.11-1.93,0-3.26.06-3.98.18l-.18.18-4.88-1.07c-.72-5.18,9.97-20.93,9.97-22.63,0-.72.07-1.81.18-3.25v-3.08c0-4.09-1.18-6.16-3.53-6.16s-4.79.37-7.33,1.09c-1.69,2.78-2.89,4.95-3.61,6.52-1.21-.74-3.2-2.53-5.97-5.43-2.42-2.53-4.59-4.17-6.52-4.89-5.07,1.44-9.53,5.43-13.39,11.94v.18c4.22,5.55-3.58,22.02-1.29,24.79-1.69.6-2.42.91-2.17.91-2.78,0,4.79-14.41.57-18.63-5.43-5.32-8.74-8.33-9.95-9.06l-2.36,3.08c.58,2.2-4.16,14.72-3.22,25.34-.35,0-.7,0-1.02,0-1.93,0-3.26.06-3.98.18l-.18.18-4.88-1.07c-.72-5.18,9.97-20.93,9.97-22.63,0-.72.07-1.81.18-3.25v-3.08c0-4.09-1.18-6.16-3.53-6.16s-4.79.37-7.33,1.09c-1.69,2.78-2.89,4.95-3.62,6.52-1.21-.74-3.2-2.53-5.97-5.43-2.41-2.53-4.59-4.17-6.52-4.89-5.07,1.44-20.59,17.74-24.45,24.25v.18c5.04,6.63,4.72,6.41,4.51,6.19.27.3,1.4,1.63,5.26,6.29-1.69.6-2.41.91-2.17.91-2.26,0-5-1.42-8.21-4.21v-18.87l-.69-32.29v-8.34c0-24.29,1.34-35.22,2.65-40.11l2.18-.83c.56.45,1.51,1.38,2.94,3.3,2.43,3.24,4.38,5.07,6.13,5.76l1.87.74,4.75-7.94-1.19-6.4-.69-.9c-7.1-9.25-13.28-17.64-18.38-24.94l-.66-.94-4.53-1.34-.98.76c-1.17.92-4.75,4.26-22.22,22.68l-.09.1c-.78.79-1.76,1.81-2.96,3.08-2.16,2.3-3.92,3.24-5.3,2.8-.6-.19-1.45-.65-2.54-1.39-1.09-.73-1.88-1.24-2.36-1.5-.58.93-.91,1.54-1.01,1.84-.67,2.11.45,5.05,3.36,8.81,2.91,3.76,5.32,5.94,7.21,6.54.86.27,2.92-1.12,6.17-4.19,0,0,0,0,0,0,1.46,6.03,2.49,13.34,3.08,21.89-.18.57-.35,1.13-.54,1.72-2.57,8.05-4.62,13.45-6.15,16.17-3.4,5.9-7.46,8.1-12.19,6.59-1.63-.52-3.79-2.15-6.47-4.89-2.67-2.74-4.47-5.04-5.4-6.88-1.55-.49-2.59.11-3.14,1.82-.48,1.51,1.53,5.87,6.05,13.08,3.6,5.92,6.51,10.29,8.74,13.11,6.97.12,12.45-1.19,16.44-3.91,1.1-.74,2.13-1.61,3.09-2.61,0,.29,0,.56-.01.86-.08,5.02-.13,9.03-.15,12.09-4.19,9.08-10.82,19.07-19.81,29.84-3.04,3.73-7.21,8.45-12.55,14.22-5.1,1.11-10.96,6.21-18.22,15.8-8.26,10.91-12.1,19.24-12.1,26.22,0,5.48,1.14,10.52,3.39,14.96,1.26,2.6,3.56,5.89,7,9.96,1.77,2.09,3.23,3.95,4.37,5.54-1.23,1.91-3.28,4.92-6.7,9.6-6.2,8.71-7.6,12.4-8.14,14.64l-.57,2.38,1.1,2.04c3.17,5.86,5.81,10.12,8.08,12.99,1.65,2.06,3.88,4.34,6.66,6.81-1.47,2.28-3.35,4.96-5.61,7.98-4.2,5.64-7.07,9.94-8.78,13.18l-.77,1.45.09,1.76c.52,10.05,6.82,18.87,18.72,26.21,8.08,5.05,15.66,7.98,22.59,8.76,2.19,1.42,4.53,2.9,7.01,4.43,5.65,3.5,10.92,6.52,15.65,8.97l.18.09.17.12c13.22,9.17,29.42,20.85,48.22,34.77,1.84,2.18,3.91,4.56,6.22,7.12-3.11-1.94-7.71-4.53-13.82-7.78-11.09-5.91-30.33-20.29-33.11-21.02l-3.08,2.36c.72,1.21,3.74,4.52,9.06,9.95,4.23,4.23,18.63,18.79,18.63,21.56,0-.24-.31.48-.91,2.17-2.77-2.29-19.24-16.62-24.79-20.83h-.18c-6.51,3.86-10.5,8.32-11.94,13.39.72,1.93,2.36,4.1,4.89,6.52,2.9,2.78,4.7,4.76,5.43,5.97-1.58.72-3.74,1.93-6.52,3.62-.72,2.54-1.09,4.98-1.09,7.33s2.06,3.53,6.16,3.53h3.08c1.44-.12,2.53-.18,3.25-.18.54,0,2.54,1.18,5.16,2.8-21.54,18.96-32.44,44.93-32.44,77.46,0,29.79,21.35,63.16,63.46,99.17,35.31,30.17,95.29,45.43,135.6,49.68.53.15,1.06.32,1.58.46,0,0,8.02.74,18.17.79.08,0,.15,0,.23,0h0c8.83.03,19.21-.45,27.34-2.37,11.81-2.8-13.99-5.58-32.19-11.16-18.75-9.5-65.52-37.51-87.91-85.3-6.52-13.92-5.88-29.62,1.89-47.12,7.78-17.51,18.75-29.59,32.9-36.21,11.82-5.54,22.8-5.91,32.92-1.15-.68-.07-1.29-.11-1.83-.11-.65,0-1.2,0-10.53,3.14-5.45,1.81-8.93,3.01-10.45,3.58-2.09.79-3.82,2.14-5.13,4.05-1.32,1.92-1.96,3.72-1.96,5.49,0,4.87,5.69,7.31,7.77,8.2l10.53,3.63c1.08.39,1.88.72,2.47.99-.77.43-1.92.98-3.61,1.68-2.64,1.09-6.77,2.51-12.27,4.25-7.75,2.44-7.98,2.64-8.57,3.2l-1.94,1.83,2.63,3.63.73.33c.63.28,1.49.68,18.13,3.59,16.45,2.89,18.31,2.89,19.01,2.89,1.15,0,2.91-.32,10.61-4.07,1.33-.66,2.52-1.26,3.6-1.81-.15.26-.3.51-.46.78-3.71,6.56-7.49,12.98-11.33,19.31,9.17,5.05,14.81,8.07,16.97,9.02,6.58,2.58,12.75,3.37,18.49,2.37,6.97-3.84,11.41-11.28,13.3-22.35,1.76-10.15.88-18.94-2.59-26.36-5.97-12.76-15.33-23.08-28.09-30.97-6.93-4.14-15.57-7.99-25.89-11.54-2.27-2.71-7.79-7.79-20.95-17.12,1.56-.29,2.75-1.02,3.53-2.22,1.18-1.82-.81-6.11-6.28-13.49-5.45-7.37-10.13-12.19-14.73-15.19-3.61-2.35-7.18-4.14-10.59-5.32-1.98-.71-4.64-1.37-8.05-1.99-1.76-.32-3.29-.64-4.58-.95-1-1.22-2.55-3.18-4.92-6.3-4.44-5.75-6.57-7.79-7.94-8.93l-1.45-1.21-1.58-.52c-4.54-1.48-7.9-2.45-10.28-2.94-1.71-.35-3.68-.6-5.9-.75-1.2-1.46-2.56-3.22-4.08-5.25-2.83-3.79-5.06-6.57-6.84-8.51l-.79-.87-1.18-.73c-5.75-3.53-11.79-5.31-18.02-5.31,5.56-5.55,14.2-12.15,26.19-19.99,4.46-2.91,8.58-5.42,12.39-7.55,4.58,1.92,10.84,4.55,18.82,7.89,11.15,4.7,20.22,8.71,27.21,12.01,10.47,4.95,18.16,7.56,23.05,7.84,1.98.13,5.16-.69,9.52-2.46,3.75-1.65,8.63-1.95,14.64-.9,8.81,4.16,17.68,16.46,26.6,36.89l3.14,2.22,4.4.73c1.26-2.66-.52-8.55-5.31-17.66-7.43-14.18-21.98-28.97-43.69-44.37-.6-.42-1.21-.84-1.81-1.27,4.55,1.61,8.25,2.49,11.17,2.65,2.5.16,5.95-.69,10.94-2.71,3.09-1.36,7.29-1.62,12.48-.76,7.98,4,16.31,15.84,24.75,35.19l.34.77,4.4,3.11,7.34,1.21.98-2.07c1.75-3.7.1-9.99-5.36-20.36-7.62-14.55-22.63-29.84-44.62-45.43ZM399.56,354.7c.3-.32.6-.6.9-.87,1.67.31,3.84.68,6.67,1.13l2.71.43v2.75c0,6.53.26,15.35.76,26.31-9.29-2.5-13.52-10.4-13.52-24.73,0-.59,0-2.38,2.47-5.01ZM603.04,314.23c0-1.33,12-15.12,13.87-16.74,1.87-1.63,3.47-2.44,4.79-2.44.49,0,1.15.43,1.99,1.27.84.84,1.27,1.5,1.27,1.99,0,.97-11.76,14.51-13.15,16.01-1.38,1.5-2.56,2.25-3.53,2.25h-1.27c-2.66,0-3.98-.78-3.98-2.34ZM411.87,410.54c.39,9.43.59,16.96.59,22.47,0,.04,0,.08,0,.12-2.05-.96-4.21-2.29-6.49-4.02-3.56-2.64-7.77-6.67-7.77-10.97.02-.02.44-2.02,4.57-7.82.67-.07,1.39-.07,2.19-.02,2.88.22,4.38.32,4.46.32.83,0,1.64-.04,2.45-.08ZM398.21,466.81c0-2.62,0-7.51,8.97-7.51.87,0,2.05.04,3.49.12-1.1,7.24-2.72,13.64-4.86,19.22-5.05-3.83-7.61-7.8-7.61-11.83ZM552.01,356.18c6.79,2.01,10.19,4,10.19,5.95,0,2.17-3,4.9-8.96,8.17-6.79,3.74-13.56,5.6-20.36,5.6-22.79,0-34.19-6.15-34.19-18.44,0,.09.26-1.4.79-4.46,11.58.05,26,.09,40.19.12,6.75,1.6,10.87,2.62,12.34,3.05ZM631.73,331.78c1.26-2.25,2.67-4.84,4.24-7.78,4.59-8.61,14.28-22.12,18.72-29.04-.46,4.8-1.71,9.81-3.75,15.01-4.28,10.88-10.68,18.15-19.22,21.82ZM615.62,262.99c8.39-2.97,15.74-3.35,22.06-1.13,7.11,2.47,12.12,7.83,15.04,16.06,1.15,3.24,1.83,6.61,2.07,10.08l-.16-.21c-1.21.72-4.52,3.74-9.95,9.06-4.23,4.23-18.79,18.63-21.56,18.63.24,0-.48-.31-2.17-.91,2.29-2.77,16.62-19.24,20.83-24.79v-.18c-3.86-6.51-8.32-10.5-13.39-11.94-1.93.72-4.1,2.36-6.52,4.89-2.78,2.9-4.76,4.7-5.97,5.43-.72-1.58-1.93-3.74-3.61-6.52-1.96-.56-3.86-.9-5.72-1.03.57-2.11,1.15-4.21,1.75-6.33,1.53-6.25,3.96-9.95,7.29-11.13ZM548.59,298.3c0-.49.43-1.15,1.27-1.99.85-.84,1.51-1.27,2-1.27,1.32,0,2.92.81,4.79,2.44,1.87,1.62-8.26,15.41-8.26,16.74,0,1.56-1.33,2.34-3.98,2.34h-.89c-1.27-1.43-2.56-2.88-3.65-4.04,1.71-4.1,8.73-13.42,8.73-14.22ZM489.91,298.3c0-.49.43-1.15,1.27-1.99.85-.84,1.51-1.27,1.99-1.27,1.33,0,2.92.81,4.79,2.44,1.87,1.62-8.26,15.41-8.26,16.74,0,1.56-1.33,2.34-3.98,2.34h-1.27c-.96,0-2.14-.75-3.53-2.25-1.38-1.5,8.98-15.04,8.98-16.01ZM454.34,577.89c-1.63-1.87-2.44-3.47-2.44-4.79,0-.49.43-1.15,1.27-1.99.84-.84,1.5-1.27,1.99-1.27.97,0,14.51,11.76,16.01,13.15.27.25.51.49.73.73l-1.15.7c-1.8,1.08-3.54,2.21-5.24,3.36-4.49-3.67-10.16-8.72-11.16-9.87ZM503.4,740.88c-13.1-17.99-19.74-41.06-19.74-68.56,0-14.81,7.55-28.16,22.43-39.69,5.48-4.24,11.22-7.69,17.2-10.35,1.5.58,3.11,1.22,4.84,1.93,3.87-3,7.83-4,10.85-4.73.24-.07.58-.11.97-.14l-1.95.91c-15.32,7.17-28.14,29.01-38.47,65.53,0,0-1.4,10.91,2.72,21.22,1.62,4.05,4.12,10.31,6.81,19.08,2.7,8.78,4.97,15.14,6.81,19.08,1.41,3.02,2.96,5.69,4.61,8.03,0,0,3.18,5.64,7.92,12.24-10.91-8.58-19.29-16.8-25.01-24.56ZM639.41,675.42l-2.14-.27-1.32.3c-4.56,2.21-8.29,3.33-11.1,3.33-1.04,0-3.9-.3-11.68-1.74-.63-.11-1.23-.23-1.78-.33,4.28-1.32,6.81-2.21,8.09-2.86,4.9-2.43,5.93-5.62,5.93-7.87,0-3.82-4.27-6.08-8.09-7.64l-11.38-4.19c-1.36-.54-2.31-.99-2.98-1.35,1.85-.98,2.75-1.08,3.05-1.08h5.79c.17,0,1.27.1,6.08,1.32,5.67,1.46,7.44,1.75,8.34,1.84l.7.07.66-.24c1.6-.6,3.02-1.15,4.3-1.67,2.78,3.62,5.3,7.82,7.55,12.64,1.29,2.75,1.4,6.05.32,9.91l-.34-.15ZM581.72,589.52c.39.25,1.57,1.02,2.78,2.95.91,1.46,1.2,2.47.86,2.99-.25.38-.85.81-3.28.13-.59-.18-2.45-.81-7.19-2.77l-4.63-1.91.39.56c-3.14-2.02-6.49-4.15-10.06-6.4,3.14-4.37,9.68-3,21.12,4.44ZM534.06,562.64c2.5-.03,6.04.33,8.88,2.18,0,.02,1.24,1.01,4.19,4.84-.1.25-.25.48-.45.72-.76.84-1.14,1.29-1.15,1.31-.62.95-1.03,1.97-1.28,3.05-.86-.54-1.69-1.07-2.53-1.6v-2.66c0-4.09-1.18-6.16-3.53-6.16s-4.79.37-7.33,1.09c-.13.21-.24.41-.37.61-.97-.62-1.93-1.22-2.87-1.82,1-1.04,3.15-1.56,6.43-1.56ZM510.84,543.93c1.73,1.13,4.95,3.22,3.06,6.14-.22.34-.57.78-1.02,1.34-.49.6-.82,1.03-.98,1.28-.22.34-.4.71-.56,1.1-7.47-4.79-13.17-8.47-17.2-11.13,1.39-.72,3.37-1.15,5.95-1.29,4.15-.24,7.78.62,10.76,2.56ZM586.82,512.14c-3.26-.57-17.42-6.77-42.48-18.62l-.51-.24c4.14-1.5,7.67-2.24,10.64-2.24,8.62,0,22.43,6.63,41.98,20.18-.05.01-.09.02-.14.04-3.91,1-7.07,1.3-9.48.9ZM614.4,481.12c-3.48.89-6.24,1.18-8.21.84-1.67-.29-9.31-3.06-41.7-18.38l-8.35-3.95c-.12-.08-1.29-.87-5.02-5.8-1.1-1.43-1.93-2.55-2.56-3.42,1.48-.29,3.2-.45,5.13-.46,4.54,0,8.55.82,11.93,2.42,19.35,9.15,35.79,18.1,48.83,26.6.9.59,1.63,1.09,2.22,1.5-.61.19-1.35.41-2.26.64Z"/>
    <path class="cls-1" d="M353.71,444.94c2.27-2.87,4.92-7.13,8.08-12.99l1.1-2.04-.57-2.38c-.53-2.24-1.94-5.93-8.13-14.64-3.42-4.69-5.47-7.69-6.7-9.6,1.13-1.59,2.6-3.45,4.37-5.54,3.44-4.07,5.75-7.35,7-9.96,2.25-4.45,3.39-9.48,3.39-14.96,0-6.98-3.84-15.31-12.1-26.22-5.93-7.83-10.92-12.65-15.33-14.77-6.58-7.02-11.57-12.63-15.07-16.92-7.13-8.54-12.76-16.58-16.88-24.07,0-.27,0-.53,0-.8,0-3.18-.05-8.31-.17-15.39,0-.28,0-.54-.01-.82.96.98,1.97,1.85,3.05,2.58,3.99,2.72,9.47,4.02,16.44,3.91,2.23-2.82,5.14-7.18,8.74-13.11,4.52-7.21,6.53-11.57,6.05-13.08-.54-1.71-1.59-2.31-3.14-1.82-.92,1.85-2.72,4.14-5.4,6.88-2.68,2.74-4.83,4.37-6.47,4.89-4.72,1.51-8.79-.69-12.19-6.59-1.53-2.73-3.58-8.12-6.15-16.17-.18-.56-.34-1.08-.51-1.62.59-8.58,1.62-15.92,3.08-21.97,3.24,3.05,5.29,4.44,6.14,4.17,1.89-.6,4.29-2.78,7.21-6.54,2.92-3.76,4.04-6.7,3.36-8.81-.1-.3-.43-.91-1.01-1.84-.49.26-1.27.77-2.36,1.5-1.09.74-1.94,1.2-2.54,1.39-1.37.44-3.14-.49-5.3-2.8-.24-.26-.47-.49-.69-.73l-2.32-2.45c-17.47-18.42-21.05-21.77-22.22-22.68l-.98-.76-4.53,1.34-.66.94c-5.1,7.3-11.28,15.69-18.38,24.94l-.69.9-1.19,6.4,4.75,7.94,1.87-.74c1.75-.69,3.7-2.52,6.13-5.76,1.43-1.92,2.38-2.85,2.94-3.3l2.18.83c.33,1.23.66,2.85.97,4.97v95.11c-2.98,2.48-5.53,3.73-7.66,3.73.24,0-.48-.31-2.17-.91,3.86-4.66,5-5.99,5.26-6.29-.21.22-.53.44,4.51-6.19v-.18c-3.86-6.51-19.38-22.8-24.45-24.25-1.93.72-4.1,2.36-6.52,4.89-2.78,2.9-4.76,4.7-5.97,5.43-.72-1.58-1.93-3.74-3.61-6.52-2.54-.72-4.98-1.09-7.33-1.09s-3.53,2.06-3.53,6.16v3.08c.12,1.44.18,2.53.18,3.25,0,1.69,10.7,17.44,9.97,22.63l-4.88,1.07-.18-.18c-.72-.12-2.05-.18-3.98-.18-.32,0-.67,0-1.02,0,.94-10.62-3.8-23.14-3.22-25.34l-2.36-3.08c-1.21.72-4.52,3.74-9.95,9.06-4.23,4.23,3.34,18.63.56,18.63.24,0-.48-.31-2.17-.91,2.29-2.77-5.51-19.24-1.29-24.79v-.18c-3.86-6.51-8.32-10.5-13.39-11.94-1.93.72-4.1,2.36-6.52,4.89-2.78,2.9-4.76,4.7-5.97,5.43-.72-1.58-1.93-3.74-3.62-6.52-2.54-.72-4.98-1.09-7.33-1.09s-3.53,2.06-3.53,6.16v3.08c.12,1.44.18,2.53.18,3.25,0,1.69,10.7,17.44,9.97,22.63l-4.88,1.07-.18-.18c-.72-.12-2.05-.18-3.98-.18-1.31,0-2.88.04-4.71.11-1.83-.07-3.4-.11-4.71-.11-1.93,0-3.26.06-3.98.18l-.18.18-4.88-1.07c-.72-5.18-12.15-20.93-12.15-22.63,0-.72.07-1.81.18-3.25v-2.25c4.75-1.43,7.74-2.38,8.93-2.85,4.23-1.88,7.44-4.4,9.62-7.55,1.42-5.02-.02-10.52-4.32-16.5-3.93-5.49-8.44-9.13-13.5-10.92-8.71-3.08-17.84-3.46-27.4-1.13-7.26,1.88-15.8,5.63-25.63,11.24l-24.33,14.39-5.46,15.44c-3.7,10.46.6,26.5,12.9,48.13,0,0,4.45,5.68,11.17,8.5,1.78.75,4.24,1.79,7.29,3.23-9.17,3.15-13.76,5.86-13.76,8.13,0,1.4,2.32,3.57,6.92,6.53,4.62,2.95,6.92,5.14,6.92,6.53,0,.78-1.08,1.79-3.26,3.03-3.53,1.87-3.93,3.28-1.23,4.21,4.89-.47,12.36-2.15,22.39-5.02,10.05-2.88,15.06-4.94,15.06-6.18,0-1.56-1.95-3.87-5.9-6.94-.22-.17-.41-.34-.62-.5,4.8.25,13.15.39,19.45-1.13,8.15-1.97,16.28-3.95,24.33-6.1.19-.13.4-.26.59-.39,3.82,0,8.09-.01,12.65-.02.52.66.79,1.33.79,2.01,0,1.87-5.42,4.27-16.28,7.24-10.85,2.95-16.28,5.02-16.28,6.18,0,4.2,6.11,7.94,18.32,11.21,12.21,3.27,25.79,4.9,40.69,4.9,10.87,0,27.43-2.54,49.67-7.59,11.18-2.54,19.55-4.82,25.11-6.83-.61,2.77-2,7.19-5.03,14.13-2.07,4.75-3.6,8.22-4.58,10.44l-1.91-.4v8.45l.75,1.34c3.95,7.05,6.18,11.09,6.63,12.05,1.88,4.21,2.83,8.19,2.83,11.86,0,2.52-.76,7.27-4.41,15.56-5.44,12.38-5.44,12.76-5.44,15.17v1.52l.65,1.28c4.27,8.39,8.28,15.58,12.03,21.53-2.39-1.66-5-3.46-5.94-4.11-37.07-25.41-47.55-29.2-50.49-29.2-2.1,0-5.49.76-10.94,3.07-.37.11-.73.19-1.11.31.92-1.13,2.14-2.54,3.75-4.27,8.26-8.88,9.17-11.59,8.04-13.99-2.5-5.29-10.42-5.25-16.14-4.75-7.81.68-15.01,2.55-21.4,5.57-26.16,12.37-48.69,25.22-66.98,38.2-21.99,15.6-37,30.88-44.62,45.43-5.46,10.38-7.11,16.66-5.36,20.36l.98,2.07,7.34-1.21,4.4-3.11.34-.77c8.45-19.35,16.77-31.18,24.75-35.19,5.18-.86,9.38-.6,12.48.76,5,2.02,8.45,2.86,10.94,2.71.56-.03,1.16-.1,1.78-.18-6.96,5.44-12.34,10.07-16.11,13.87-11.36,10.03-19.54,19.8-24.51,29.29-4.79,9.11-6.56,15-5.31,17.66l4.4-.73,3.14-2.22c8.92-20.43,17.79-32.73,26.6-36.89,6-1.05,10.88-.75,14.63.9,4.36,1.77,7.54,2.59,9.52,2.46,4.89-.28,12.58-2.88,23.05-7.84,6.99-3.3,16.06-7.32,27.21-12.01,8.79-3.68,15.49-6.49,20.16-8.45,3.24,1.87,6.7,4,10.4,6.41,13.53,8.85,22.82,16.12,28.19,22.08-.66-.1-1.34-.18-2.05-.24-7.36-.72-14.52,1.01-21.25,5.15l-1.18.73-.79.87c-1.77,1.94-4.01,4.73-6.84,8.51-1.52,2.04-2.88,3.79-4.08,5.25-2.22.16-4.19.41-5.9.75-2.38.49-5.74,1.46-10.28,2.94l-1.58.52-1.45,1.21c-1.37,1.14-3.5,3.17-7.94,8.93-2.37,3.12-3.92,5.08-4.92,6.3-1.29.31-2.82.63-4.58.95-3.41.62-6.07,1.28-8.05,1.99-3.41,1.18-6.97,2.97-10.59,5.32-4.61,2.99-9.29,7.82-14.73,15.19-5.46,7.39-7.46,11.68-6.28,13.49.9,1.38,2.34,2.16,4.28,2.33-13.24,9.55-17.78,14.22-19.27,16.41l.47.4c-10.58,3.6-19.41,7.51-26.47,11.73-12.76,7.89-22.12,18.21-28.09,30.97-3.47,7.42-4.35,16.21-2.59,26.36,1.89,11.07,6.33,18.52,13.3,22.35,5.75,1,11.92.21,18.49-2.37,2.16-.96,7.8-3.98,16.97-9.02-3.84-6.32-7.61-12.75-11.33-19.31-.17-.28-.33-.56-.5-.84,1.11.57,2.34,1.18,3.72,1.87,7.7,3.75,9.46,4.07,10.61,4.07.7,0,2.56,0,19.01-2.89,16.64-2.92,17.5-3.31,18.13-3.59l.73-.33,2.63-3.63-1.94-1.83c-.59-.56-.82-.76-8.57-3.2-5.5-1.73-9.63-3.16-12.27-4.25-1.69-.69-2.83-1.25-3.61-1.68.59-.28,1.38-.61,2.47-.99l10.53-3.63c2.08-.88,7.77-3.33,7.77-8.2,0-1.77-.64-3.57-1.96-5.49-1.32-1.91-3.05-3.26-5.13-4.05-1.52-.57-5.01-1.77-10.45-3.58-9.32-3.14-9.88-3.14-10.52-3.14-.57,0-1.22.04-1.94.13,10.12-4.78,21.12-4.41,32.95,1.13,14.14,6.62,25.11,18.7,32.9,36.21,7.77,17.5,8.41,33.2,1.89,47.12-22.39,47.8-69.16,75.81-87.91,85.3-18.19,5.58-43.99,8.36-32.19,11.16,4.63,1.1,10,1.72,15.4,2.05l.37.32c1.33-.01,2.73-.05,4.18-.1,13.45.44,25.8-.69,25.8-.69,3.14-.83,6.33-1.9,9.52-3.09,42.37-6.79,98.07-22.64,128.61-48.74,42.11-36.01,63.47-69.38,63.47-99.17,0-32.92-11.17-59.11-33.22-78.13.54-.27.93-.43,1.13-.43.72,0,1.81.07,3.25.18h3.08c4.09,0,6.16-1.18,6.16-3.53s-.37-4.79-1.09-7.33c-2.78-1.69-4.95-2.89-6.52-3.62.74-1.21,2.53-3.19,5.43-5.97,2.53-2.42,4.17-4.59,4.89-6.52-1.44-5.07-5.43-9.53-11.94-13.39h-.18c-5.55,4.22-22.02,18.54-24.79,20.83-.6-1.69-.91-2.42-.91-2.17,0-2.78,14.41-17.34,18.63-21.56,5.32-5.43,8.33-8.74,9.06-9.95l-3.08-2.36c-2.78.73-22.02,15.11-33.11,21.02-4.08,2.17-7.49,4.05-10.24,5.64l-.05-.11c.88-.99,1.72-1.96,2.52-2.89,20.96-15.57,38.86-28.51,53.2-38.45l.35-.21c4.74-2.46,10-5.48,15.66-8.97,1.4-.86,2.74-1.7,4.05-2.53,7.62-.27,16.09-3.27,25.19-8.96,11.9-7.34,18.2-16.16,18.72-26.21l.09-1.76-.77-1.45c-1.71-3.24-4.58-7.54-8.78-13.18-2.27-3.02-4.14-5.7-5.61-7.98,2.78-2.47,5.01-4.75,6.66-6.81ZM129.09,478.98c13.04-8.5,29.48-17.45,48.83-26.6,3.38-1.6,7.39-2.41,11.93-2.42,1.93.01,3.65.17,5.13.46-.63.87-1.46,1.99-2.56,3.42-3.73,4.93-4.9,5.72-5.02,5.8l-8.35,3.95c-32.39,15.31-40.03,18.09-41.7,18.38-1.97.33-4.74.05-8.21-.84-.91-.23-1.65-.44-2.26-.64.59-.41,1.32-.91,2.22-1.5ZM194.68,493.51c-25.06,11.85-39.22,18.06-42.48,18.62-2.42.41-5.57.11-9.49-.9-.87-.22-1.64-.44-2.34-.66,20.36-14.27,34.68-21.25,43.52-21.25,3.51,0,7.82,1.04,12.98,3.14l-2.2,1.04ZM224.25,543.93c2.99-1.94,6.61-2.81,10.76-2.56,2.82.16,4.92.67,6.31,1.51-4.37,2.85-10.15,6.58-17.44,11.24-.18-.51-.4-.99-.68-1.42-.16-.25-.5-.68-.98-1.28-.46-.56-.8-1-1.02-1.34-1.9-2.92,1.32-5.02,3.06-6.14ZM192.15,564.81c2.83-1.84,6.38-2.2,8.88-2.18,3.54,0,5.76.61,6.64,1.81-5.11,3.25-10.68,6.78-16.75,10.62-.23-1.2-.68-2.34-1.35-3.38-.02-.03-.4-.47-1.15-1.31-.2-.24-.36-.47-.45-.72,2.95-3.83,4.18-4.83,4.19-4.84ZM160.18,592.83c-4.74,1.95-6.6,2.59-7.19,2.77-2.43.68-3.03.25-3.28-.13-.34-.52-.05-1.53.86-2.99,1.21-1.93,2.39-2.7,2.78-2.95,11.67-7.59,18.24-8.88,21.31-4.19-3.87,2.45-7.46,4.75-10.79,6.92l.92-1.33-4.63,1.91ZM125.68,651.72h5.79c.3,0,1.2.1,3.05,1.08-.66.35-1.62.81-2.98,1.35l-11.38,4.19c-3.83,1.57-8.09,3.82-8.09,7.64,0,2.25,1.03,5.43,5.93,7.87,1.29.65,3.81,1.54,8.09,2.86-.55.1-1.14.22-1.78.33-7.78,1.44-10.64,1.74-11.68,1.74-2.81,0-6.55-1.12-11.1-3.33l-1.32-.3-2.14.27-.42.19c-1.09-3.87-.98-7.19.31-9.94,2.26-4.83,4.79-9.04,7.57-12.66,1.29.53,2.73,1.09,4.36,1.7l.66.24.7-.07c.91-.09,2.67-.38,8.34-1.84,4.81-1.21,5.9-1.31,6.08-1.32ZM234.96,739.2c-5.62,7.62-13.81,15.68-24.46,24.11,3.9-5.64,6.42-10.11,6.42-10.11,1.65-2.34,3.19-5.01,4.61-8.03,1.84-3.94,4.11-10.3,6.81-19.08,2.69-8.77,5.19-15.03,6.81-19.08,4.12-10.31,2.72-21.22,2.72-21.22-10.33-36.52-23.15-58.35-38.47-65.53l-13.5-6.33c16.89.55,32.48,6.26,46.37,17.01,14.88,11.52,22.43,24.88,22.43,39.68,0,27.49-6.64,50.56-19.75,68.57ZM280.39,571.1c.84.85,1.27,1.51,1.27,1.99,0,1.33-.81,2.92-2.44,4.79-.77.89-4.28,4.06-7.9,7.15-1.21-.79-2.43-1.57-3.69-2.33l-1.55-.94v-2.01c4.55-3.93,11.64-9.92,12.34-9.92.49,0,1.15.43,1.99,1.27ZM338.45,354.7c2.47,2.62,2.47,4.42,2.47,5.01,0,14.18-4.15,22.07-13.24,24.65.56-11.69.84-21.06.84-27.92v-1.64c.33-.49.66-.91.98-1.26l1.74-.27c1.77-.28,3.27-.53,4.57-.75.85.5,1.74,1.23,2.65,2.19ZM325.9,431.32c0-5.2.18-12.15.52-20.77.72.03,1.43.07,2.17.07.08,0,1.58-.1,4.46-.32.8-.05,1.52-.05,2.19.02,4.13,5.8,4.55,7.8,4.57,7.82,0,4.3-4.2,8.32-7.77,10.97-2.14,1.63-4.18,2.9-6.12,3.85,0-.55-.02-1.08-.02-1.64ZM133.84,316.57h-1.27c-.96,0-2.14-.75-3.53-2.25-1.38-1.5-13.15-15.04-13.15-16.01,0-.49.43-1.15,1.27-1.99.85-.84,1.51-1.27,1.99-1.27,1.33,0,2.92.81,4.79,2.44,1.87,1.62,13.87,15.41,13.87,16.74,0,1.56-1.32,2.34-3.98,2.34ZM327.95,459.38c1.16-.05,2.13-.09,2.87-.09,8.97,0,8.97,4.89,8.97,7.51,0,3.81-2.3,7.58-6.82,11.21-2.18-5.41-3.86-11.61-5.03-18.64ZM242.9,297.49c1.87-1.63,3.47-2.44,4.79-2.44.49,0,1.15.43,1.99,1.27.84.84,1.27,1.5,1.27,1.99,0,.97,10.36,14.51,8.98,16.01-1.38,1.5-2.56,2.25-3.53,2.25h-1.27c-2.66,0-3.98-.78-3.98-2.34,0-1.33-10.13-15.12-8.26-16.74ZM184.22,297.49c1.87-1.63,3.47-2.44,4.79-2.44.49,0,1.15.43,2,1.27.84.84,1.27,1.5,1.27,1.99,0,.8,7.02,10.12,8.73,14.22-1.09,1.16-2.38,2.61-3.65,4.04h-.89c-2.66,0-3.98-.78-3.98-2.34,0-1.33-10.13-15.12-8.26-16.74ZM88.15,277.92c2.91-8.24,7.93-13.6,15.03-16.06,6.32-2.22,13.67-1.84,22.06,1.13,3.33,1.18,5.76,4.87,7.29,11.13.6,2.12,1.18,4.23,1.75,6.33-1.85.13-3.75.47-5.72,1.03-1.69,2.78-2.89,4.95-3.62,6.52-1.21-.74-3.2-2.53-5.97-5.43-2.41-2.53-4.59-4.17-6.52-4.89-5.07,1.44-9.53,5.43-13.39,11.94v.18c4.22,5.55,18.54,22.02,20.83,24.79-1.69.6-2.41.91-2.17.91-2.78,0-17.34-14.41-21.56-18.63-5.43-5.32-8.74-8.33-9.95-9.06l-.16.21c.24-3.48.93-6.84,2.07-10.08ZM109.14,331.78c-8.53-3.66-14.93-10.93-19.22-21.82-2.04-5.21-3.29-10.21-3.75-15.01,4.45,6.92,14.13,20.43,18.72,29.04,1.57,2.95,2.98,5.54,4.24,7.78ZM210.9,375.9c-6.79,0-13.56-1.86-20.36-5.6-5.96-3.27-8.96-5.99-8.96-8.17,0-1.95,3.4-3.93,10.19-5.95,1.89-.55,8.13-2.07,18.72-4.56.05-.08.09-.14.14-.22,12.27-.03,24.07-.07,33.37-.12.72,4.21,1.08,6.28,1.08,6.18,0,12.29-11.4,18.44-34.18,18.44Z"/>
  </g>
</svg>